Coordinates
version=1
nRows=15
nColumns=19
inDegrees=yes

Units are S.I. units (second, meters, Newtons, ...)
If the header above contains a line with 'inDegrees', this indicates whether rotational values are in degrees (yes) or radians (no).

endheader
time	pelvis_tilt	pelvis_list	pelvis_rotation	pelvis_tx	pelvis_ty	pelvis_tz	hip_flexion_r	hip_adduction_r	hip_rotation_r	knee_angle_r	knee_angle_r_beta	ankle_angle_r	hip_flexion_l	hip_adduction_l	hip_rotation_l	knee_angle_l	knee_angle_l_beta	ankle_angle_l
     13.68666667	     -4.68183759	     10.02903604	      4.35286557	      2.41652204	      0.99101929	      1.04714159	    -14.45459305	    -13.96804859	    -10.88687233	     69.83632518	      1.21887381	    -17.51631947	     29.53487058	     16.02805955	     -2.77103114	     10.26493928	      0.17915699	     -1.52847878
     13.69333333	     -4.02266861	     10.20546393	      5.20324771	      2.41609075	      0.98789475	      1.04637983	    -13.94505330	    -14.23880484	    -11.35888616	     73.94380653	      1.29056289	    -16.52533264	     28.46730882	     16.51876181	     -2.96904658	     11.93407869	      0.20828897	     -1.72067585
     13.70000000	     -3.83941191	     10.15207792	      6.11618995	      2.41548604	      0.98399096	      1.04566294	    -12.73056688	    -14.26941160	    -11.61762707	     78.00885319	      1.36151133	    -15.62416158	     28.05127348	     16.75234935	     -3.07905765	     14.15799035	      0.24710355	     -1.71793232
     13.70666667	     -3.26160435	     10.35332030	      6.99306894	      2.41491367	      0.98034840	      1.04503381	    -11.97981966	    -14.58732559	    -12.01273315	     81.82816427	      1.42817089	    -14.68539365	     27.14863327	     17.17302416	     -3.14374109	     16.53942659	      0.28866745	     -1.57984501
     13.71333333	     -3.66934709	     10.03990470	      7.96585416	      2.41382541	      0.97541067	      1.04428808	     -9.78754660	    -14.46826403	    -12.05603118	     85.73342926	      1.49633062	    -13.81875614	     27.62219447	     17.13800654	     -3.05799976	     19.64250007	      0.34282630	     -1.05194271
     13.72000000	     -3.47354024	     10.09546196	      8.85058684	      2.41284465	      0.97106026	      1.04370026	     -8.34691830	    -14.82608418	    -12.32794111	     89.31553645	      1.55885018	    -12.89363795	     27.31137969	     17.39416619	     -2.91869651	     22.71294202	      0.39641562	     -0.19948508
     13.72666667	     -4.26315576	      9.65315710	      9.76688626	      2.41142355	      0.96554102	      1.04309364	     -5.43255386	    -14.79114884	    -12.21459421	     92.92936072	      1.62192332	    -12.00641554	     28.29116521	     17.26792446	     -2.61889500	     26.24606820	      0.45808031	      1.07132408
     13.73333333	     -4.75797499	      9.35432326	     10.59344414	      2.40993339	      0.96042394	      1.04257260	     -2.79973178	    -15.03680082	    -12.18202878	     96.26303863	      1.68010697	    -11.10067585	     28.84286044	     17.26426240	     -2.20680276	     29.69848013	      0.51833626	      2.72254055
     13.74000000	     -5.30065988	      9.01423377	     11.32561797	      2.40826891	      0.95544186	      1.04216866	      0.06568728	    -15.34397467	    -12.03317115	     99.37566937	      1.73443263	    -10.20567331	     29.36996252	     17.22353449	     -1.70203402	     33.07601534	      0.57728537	      4.70305945
     13.74666667	     -5.80679984	      8.63523915	     11.98740538	      2.40645394	      0.95080026	      1.04183110	      3.04857051	    -15.68516850	    -11.81711418	    102.21070635	      1.78391336	     -9.35758729	     29.70301880	     17.15869723	     -1.02930469	     36.23772129	      0.63246755	      6.96205321
     13.75333333	     -6.30387877	      8.27833176	     12.49201625	      2.40454248	      0.94659794	      1.04168034	      6.21798929	    -16.10826567	    -11.42148057	    104.76993785	      1.82858037	     -8.52801952	     29.80659131	     17.06842510	     -0.32787454	     39.03652470	      0.68131588	      9.37666925
     13.76000000	     -6.72788519	      7.94438120	     12.84222393	      2.40250474	      0.94300267	      1.04171339	      9.50142279	    -16.54987303	    -10.84653788	    107.01127682	      1.86769912	     -7.76793223	     29.56628365	     16.93335669	      0.42954164	     41.38025480	      0.72222169	     11.87637378
     13.76666667	     -7.02179320	      7.62338469	     13.07849336	      2.40041929	      0.94016750	      1.04190260	     12.79379534	    -16.95814359	    -10.16894568	    108.87532276	      1.90023286	     -7.06031047	     28.88908275	     16.73285975	      1.25847916	     43.22184363	      0.75436348	     14.36405769
     13.77333333	     -7.18741123	      7.35307587	     13.15225833	      2.39834523	      0.93814445	      1.04231566	     16.08980394	    -17.31283592	     -9.32651039	    110.34834098	      1.92594187	     -6.38576485	     27.74956302	     16.45838159	      2.07443347	     44.48797428	      0.77646163	     16.72322580
     13.78000000	     -6.77685817	      7.23880923	     13.24150819	      2.39642202	      0.93753743	      1.04269850	     18.66507289	    -17.71446974	     -8.65209151	    111.29665632	      1.94249310	     -5.74214276	     25.57916955	     16.23178814	      3.13059644	     45.11755358	      0.78744986	     18.88649545
